  0
SECTION
  2
HEADER
  9
$ACADVER
  1
AC1009
  9
$DWGCODEPAGE
  3
ansi_1252
  9
$INSBASE
 10
0.0
 20
0.0
 30
0.0
  9
$EXTMIN
 10
0.0
 20
0.0
 30
0.0
  9
$EXTMAX
 10
1200.0
 20
900.0
 30
0.0
  9
$LIMMIN
 10
0.0
 20
0.0
  9
$LIMMAX
 10
1200.0
 20
900.0
  9
$ORTHOMODE
 70
     0
  9
$REGENMODE
 70
     1
  9
$FILLMODE
 70
     1
  9
$QTEXTMODE
 70
     0
  9
$MIRRTEXT
 70
     1
  9
$DRAGMODE
 70
     2
  9
$LTSCALE
 40
1.0
  9
$OSMODE
 70
    37
  9
$ATTMODE
 70
     1
  9
$TEXTSIZE
 40
3.5
  9
$TRACEWID
 40
1.0
  9
$TEXTSTYLE
  7
STANDARD
  9
$CLAYER
  8
0
  9
$CELTYPE
  6
BYLAYER
  9
$CECOLOR
 62
   256
  9
$DIMSCALE
 40
1.0
  9
$DIMASZ
 40
3.302
  9
$DIMEXO
 40
1.0
  9
$DIMDLI
 40
3.75
  9
$DIMRND
 40
0.0
  9
$DIMDLE
 40
0.0
  9
$DIMEXE
 40
1.0
  9
$DIMTP
 40
0.0
  9
$DIMTM
 40
0.0
  9
$DIMTXT
 40
3.5
  9
$DIMCEN
 40
2.5
  9
$DIMTSZ
 40
0.0
  9
$DIMTOL
 70
     0
  9
$DIMLIM
 70
     0
  9
$DIMTIH
 70
     1
  9
$DIMTOH
 70
     1
  9
$DIMSE1
 70
     0
  9
$DIMSE2
 70
     0
  9
$DIMTAD
 70
     1
  9
$DIMZIN
 70
     0
  9
$DIMBLK
  1

  9
$DIMASO
 70
     1
  9
$DIMSHO
 70
     1
  9
$DIMPOST
  1

  9
$DIMAPOST
  1

  9
$DIMALT
 70
     0
  9
$DIMALTD
 70
     3
  9
$DIMALTF
 40
0.0393700787
  9
$DIMLFAC
 40
0.5
  9
$DIMTOFL
 70
     1
  9
$DIMTVP
 40
0.0
  9
$DIMTIX
 70
     0
  9
$DIMSOXD
 70
     0
  9
$DIMSAH
 70
     0
  9
$DIMBLK1
  1

  9
$DIMBLK2
  1

  9
$DIMSTYLE
  2
ISO-25
  9
$DIMCLRD
 70
     0
  9
$DIMCLRE
 70
     0
  9
$DIMCLRT
 70
     0
  9
$DIMTFAC
 40
1.0
  9
$DIMGAP
 40
1.524
  9
$LUNITS
 70
     2
  9
$LUPREC
 70
     2
  9
$SKETCHINC
 40
1.0
  9
$FILLETRAD
 40
10.0
  9
$AUNITS
 70
     0
  9
$AUPREC
 70
     2
  9
$MENU
  1
.
  9
$ELEVATION
 40
0.0
  9
$PELEVATION
 40
0.0
  9
$THICKNESS
 40
0.0
  9
$LIMCHECK
 70
     0
  9
$CHAMFERA
 40
0.0
  9
$CHAMFERB
 40
0.0
  9
$SKPOLY
 70
     0
  9
$TDCREATE
 40
2457255.515986782
  9
$TDUPDATE
 40
2457255.515988634
  9
$TDINDWG
 40
0.0000000116
  9
$TDUSRTIMER
 40
0.0000000116
  9
$USRTIMER
 70
     1
  9
$ANGBASE
 50
0.0
  9
$ANGDIR
 70
     0
  9
$PDMODE
 70
     0
  9
$PDSIZE
 40
-1.0
  9
$PLINEWID
 40
0.0
  9
$COORDS
 70
     1
  9
$SPLFRAME
 70
     0
  9
$SPLINETYPE
 70
     6
  9
$SPLINESEGS
 70
     8
  9
$ATTDIA
 70
     0
  9
$ATTREQ
 70
     1
  9
$HANDLING
 70
     1
  9
$HANDSEED
  5
1E3
  9
$SURFTAB1
 70
     6
  9
$SURFTAB2
 70
     6
  9
$SURFTYPE
 70
     6
  9
$SURFU
 70
     6
  9
$SURFV
 70
     6
  9
$UCSNAME
  2

  9
$UCSORG
 10
0.0
 20
0.0
 30
0.0
  9
$UCSXDIR
 10
1.0
 20
0.0
 30
0.0
  9
$UCSYDIR
 10
0.0
 20
1.0
 30
0.0
  9
$PUCSNAME
  2

  9
$PUCSORG
 10
0.0
 20
0.0
 30
0.0
  9
$PUCSXDIR
 10
1.0
 20
0.0
 30
0.0
  9
$PUCSYDIR
 10
0.0
 20
1.0
 30
0.0
  9
$USERI1
 70
     0
  9
$USERI2
 70
     0
  9
$USERI3
 70
     0
  9
$USERI4
 70
     0
  9
$USERI5
 70
     0
  9
$USERR1
 40
0.0
  9
$USERR2
 40
0.0
  9
$USERR3
 40
0.0
  9
$USERR4
 40
0.0
  9
$USERR5
 40
0.0
  9
$WORLDVIEW
 70
     1
  9
$SHADEDGE
 70
     3
  9
$SHADEDIF
 70
    70
  9
$TILEMODE
 70
     1
  9
$MAXACTVP
 70
    64
  9
$PLIMCHECK
 70
     0
  9
$PEXTMIN
 10
1.0000000000E+20
 20
1.0000000000E+20
 30
1.0000000000E+20
  9
$PEXTMAX
 10
-1.0000000000E+20
 20
-1.0000000000E+20
 30
-1.0000000000E+20
  9
$PLIMMIN
 10
0.0
 20
0.0
  9
$PLIMMAX
 10
420.0
 20
297.0
  9
$UNITMODE
 70
     0
  9
$VISRETAIN
 70
     1
  9
$PLINEGEN
 70
     0
  9
$PSLTSCALE
 70
     1
  0
ENDSEC
  0
SECTION
  2
TABLES
  0
TABLE
  2
VPORT
 70
     1
  0
VPORT
  2
*ACTIVE
 70
     0
 10
0.0
 20
0.0
 11
1.0
 21
1.0
 12
600.0
 22
450.0
 13
0.0
 23
0.0
 14
10.0
 24
10.0
 15
10.0
 25
10.0
 16
0.0
 26
0.0
 36
1.0
 17
0.0
 27
0.0
 37
0.0
 40
900.0
 41
1.3333333333
 42
50.0
 43
0.0
 44
0.0
 50
0.0
 51
0.0
 71
     0
 72
  2000
 73
     1
 74
     3
 75
     0
 76
     0
 77
     0
 78
     0
  0
ENDTAB
  0
TABLE
  2
LTYPE
 70
     6
  0
LTYPE
  2
CONTINUOUS
 70
     0
  3
Solid line
 72
    65
 73
     0
 40
0.0
  0
LTYPE
  2
HIDDEN
 70
     0
  3
Hidden __ __ __ __ __ __ __ __ __ __ __ __ __ __
 72
    65
 73
     2
 40
1.905
 49
1.27
 49
-0.635
  0
LTYPE
  2
PHANTOM
 70
     0
  3
Phantom ______  __  __  ______  __  __  ______
 72
    65
 73
     6
 40
12.7
 49
6.35
 49
-1.27
 49
1.27
 49
-1.27
 49
1.27
 49
-1.27
  0
LTYPE
  2
CENTER
 70
     0
  3
Center ____ _ ____ _ ____ _ ____ _ ____ _ ____
 72
    65
 73
     4
 40
10.16
 49
6.35
 49
-1.27
 49
1.27
 49
-1.27
  0
LTYPE
  2
CENTERX2
 70
     0
  3
Center (2x) ________  __  ________  __  _____
 72
    65
 73
     4
 40
20.32
 49
12.7
 49
-2.54
 49
2.54
 49
-2.54
  0
LTYPE
  2
DOT2
 70
     0
  3
Dot (.5x) ........................................
 72
    65
 73
     2
 40
0.635
 49
0.0
 49
-0.635
  0
ENDTAB
  0
TABLE
  2
LAYER
 70
     1
  0
LAYER
  2
0
 70
     0
 62
     7
  6
CONTINUOUS
  0
ENDTAB
  0
TABLE
  2
STYLE
 70
     1
  0
STYLE
  2
STANDARD
 70
     0
 40
0.0
 41
1.0
 50
0.0
 71
     0
 42
3.5
  3
txt
  4

  0
ENDTAB
  0
TABLE
  2
VIEW
 70
     0
  0
ENDTAB
  0
TABLE
  2
UCS
 70
     0
  0
ENDTAB
  0
TABLE
  2
APPID
 70
     1
  0
APPID
  2
ACAD
 70
     0
  0
ENDTAB
  0
TABLE
  2
DIMSTYLE
 70
     1
  0
DIMSTYLE
  2
ISO-25
 70
     0
  3

  4

  5

  6

  7

 40
1.0
 41
2.5
 42
0.625
 43
3.75
 44
1.25
 45
0.0
 46
0.0
 47
0.0
 48
0.0
140
2.5
141
2.5
142
0.0
143
0.0393700787
144
1.0
145
0.0
146
1.0
147
0.625
 71
     0
 72
     0
 73
     0
 74
     0
 75
     0
 76
     0
 77
     1
 78
     8
170
     0
171
     3
172
     1
173
     0
174
     0
175
     0
176
     0
177
     0
178
     0
  0
ENDTAB
  0
ENDSEC
  0
SECTION
  2
BLOCKS
  0
BLOCK
  8
0
  2
$MODEL_SPACE
 70
     0
 10
0.0
 20
0.0
 30
0.0
  3
$MODEL_SPACE
  1

  0
ENDBLK
  5
21
  8
0
  0
BLOCK
 67
     1
  8
0
  2
$PAPER_SPACE
 70
     0
 10
0.0
 20
0.0
 30
0.0
  3
$PAPER_SPACE
  1

  0
ENDBLK
  5
1D
 67
     1
  8
0
  0
ENDSEC
  0
SECTION
  2
ENTITIES
  0
LINE
  5
6F
  8
0
  6
CONTINUOUS
 62
     7
 10
121.6973650338
 20
32.0007028476
 30
0.0
 11
121.6973650338
 21
30.6545490015
 31
0.0
  0
LINE
  5
70
  8
0
  6
CONTINUOUS
 62
     7
 10
122.6204419569
 20
32.5391643861
 30
0.0
 11
122.6204419569
 21
32.0007028476
 31
0.0
  0
LINE
  5
71
  8
0
  6
CONTINUOUS
 62
     7
 10
121.6973650338
 20
32.5391643861
 30
0.0
 11
122.6204419569
 21
32.5391643861
 31
0.0
  0
LINE
  5
72
  8
0
  6
CONTINUOUS
 62
     7
 10
121.6973650338
 20
33.116087463
 30
0.0
 11
121.6973650338
 21
32.5391643861
 31
0.0
  0
LINE
  5
73
  8
0
  6
CONTINUOUS
 62
     7
 10
122.6204419569
 20
33.116087463
 30
0.0
 11
121.6973650338
 21
33.116087463
 31
0.0
  0
LINE
  5
74
  8
0
  6
CONTINUOUS
 62
     7
 10
122.6204419569
 20
33.6545490015
 30
0.0
 11
122.6204419569
 21
33.116087463
 31
0.0
  0
LINE
  5
75
  8
0
  6
CONTINUOUS
 62
     7
 10
121.1589034953
 20
33.6545490015
 30
0.0
 11
122.6204419569
 21
33.6545490015
 31
0.0
  0
LINE
  5
76
  8
0
  6
CONTINUOUS
 62
     7
 10
121.1589034953
 20
30.6545490015
 30
0.0
 11
121.1589034953
 21
33.6545490015
 31
0.0
  0
LINE
  5
77
  8
0
  6
CONTINUOUS
 62
     7
 10
121.6973650338
 20
30.6545490015
 30
0.0
 11
121.1589034953
 21
30.6545490015
 31
0.0
  0
LINE
  5
78
  8
0
  6
CONTINUOUS
 62
     7
 10
120.3472029996
 20
47.6629381716
 30
0.0
 11
120.3472029996
 21
67.6629381716
 31
0.0
  0
LINE
  5
79
  8
0
  6
CONTINUOUS
 62
     7
 10
120.3472029996
 20
67.6629381716
 30
0.0
 11
117.3472029996
 21
67.6629381716
 31
0.0
  0
LINE
  5
7A
  8
0
  6
CONTINUOUS
 62
     7
 10
117.3472029996
 20
67.6629381716
 30
0.0
 11
117.3472029996
 21
47.6629381716
 31
0.0
  0
LINE
  5
7B
  8
0
  6
CONTINUOUS
 62
     7
 10
62.3472029996
 20
92.6629381716
 30
0.0
 11
87.3472029996
 21
92.6629381716
 31
0.0
  0
LINE
  5
7C
  8
0
  6
CONTINUOUS
 62
     7
 10
87.3472029996
 20
92.6629381716
 30
0.0
 11
87.3472029996
 21
95.6629381716
 31
0.0
  0
LINE
  5
7D
  8
0
  6
CONTINUOUS
 62
     7
 10
62.3472029996
 20
95.6629381716
 30
0.0
 11
62.3472029996
 21
92.6629381716
 31
0.0
  0
LINE
  5
7E
  8
0
  6
CONTINUOUS
 62
     7
 10
62.3472029996
 20
19.6629381716
 30
0.0
 11
87.3472029996
 21
19.6629381716
 31
0.0
  0
LINE
  5
7F
  8
0
  6
CONTINUOUS
 62
     7
 10
87.3472029996
 20
19.6629381716
 30
0.0
 11
87.3472029996
 21
22.6629381716
 31
0.0
  0
LINE
  5
80
  8
0
  6
CONTINUOUS
 62
     7
 10
87.3472029996
 20
22.6629381716
 30
0.0
 11
62.3472029996
 21
22.6629381716
 31
0.0
  0
LINE
  5
81
  8
0
  6
CONTINUOUS
 62
     7
 10
124.8472029996
 20
22.1629381716
 30
0.0
 11
124.8472029996
 21
93.1629381716
 31
0.0
  0
LINE
  5
82
  8
0
  6
CONTINUOUS
 62
     7
 10
119.8472029996
 20
98.1629381716
 30
0.0
 11
29.8472029996
 21
98.1629381716
 31
0.0
  0
LINE
  5
83
  8
0
  6
CONTINUOUS
 62
     7
 10
119.6973650338
 20
44.3919288092
 30
0.0
 11
119.6973650338
 21
42.4237797707
 31
0.0
  0
LINE
  5
84
  8
0
  6
CONTINUOUS
 62
     7
 10
121.0549371492
 20
42.4237797707
 30
0.0
 11
119.6973650338
 21
44.3919288092
 31
0.0
  0
LINE
  5
85
  8
0
  6
CONTINUOUS
 62
     7
 10
121.5435188799
 20
42.4237797707
 30
0.0
 11
121.0549371492
 21
42.4237797707
 31
0.0
  0
LINE
  5
86
  8
0
  6
CONTINUOUS
 62
     7
 10
121.5435188799
 20
45.4237797707
 30
0.0
 11
121.5435188799
 21
42.4237797707
 31
0.0
  0
LINE
  5
87
  8
0
  6
CONTINUOUS
 62
     7
 10
121.0050573415
 20
45.4237797707
 30
0.0
 11
121.5435188799
 21
45.4237797707
 31
0.0
  0
LINE
  5
88
  8
0
  6
CONTINUOUS
 62
     7
 10
121.0050573415
 20
43.4496211168
 30
0.0
 11
121.0050573415
 21
45.4237797707
 31
0.0
  0
LINE
  5
89
  8
0
  6
CONTINUOUS
 62
     7
 10
119.6438794569
 20
45.4237797707
 30
0.0
 11
121.0050573415
 21
43.4496211168
 31
0.0
  0
LINE
  5
8A
  8
0
  6
CONTINUOUS
 62
     7
 10
119.1589034953
 20
42.4237797707
 30
0.0
 11
119.1589034953
 21
45.4237797707
 31
0.0
  0
LINE
  5
8B
  8
0
  6
CONTINUOUS
 62
     7
 10
119.6973650338
 20
42.4237797707
 30
0.0
 11
119.1589034953
 21
42.4237797707
 31
0.0
  0
LINE
  5
8C
  8
0
  6
CONTINUOUS
 62
     7
 10
119.6973650338
 20
32.0007028476
 30
0.0
 11
119.6973650338
 21
30.6545490015
 31
0.0
  0
LINE
  5
8D
  8
0
  6
CONTINUOUS
 62
     7
 10
120.6204419569
 20
32.0007028476
 30
0.0
 11
119.6973650338
 21
32.0007028476
 31
0.0
  0
LINE
  5
8E
  8
0
  6
CONTINUOUS
 62
     7
 10
120.6204419569
 20
32.5391643861
 30
0.0
 11
120.6204419569
 21
32.0007028476
 31
0.0
  0
LINE
  5
8F
  8
0
  6
CONTINUOUS
 62
     7
 10
119.6973650338
 20
32.5391643861
 30
0.0
 11
120.6204419569
 21
32.5391643861
 31
0.0
  0
LINE
  5
90
  8
0
  6
CONTINUOUS
 62
     7
 10
119.6973650338
 20
33.116087463
 30
0.0
 11
119.6973650338
 21
32.5391643861
 31
0.0
  0
LINE
  5
91
  8
0
  6
CONTINUOUS
 62
     7
 10
120.6204419569
 20
33.116087463
 30
0.0
 11
119.6973650338
 21
33.116087463
 31
0.0
  0
LINE
  5
92
  8
0
  6
CONTINUOUS
 62
     7
 10
120.6204419569
 20
33.6545490015
 30
0.0
 11
120.6204419569
 21
33.116087463
 31
0.0
  0
LINE
  5
93
  8
0
  6
CONTINUOUS
 62
     7
 10
119.1589034953
 20
33.6545490015
 30
0.0
 11
120.6204419569
 21
33.6545490015
 31
0.0
  0
LINE
  5
94
  8
0
  6
CONTINUOUS
 62
     7
 10
119.1589034953
 20
30.6545490015
 30
0.0
 11
119.1589034953
 21
33.6545490015
 31
0.0
  0
LINE
  5
95
  8
0
  6
CONTINUOUS
 62
     7
 10
119.6973650338
 20
30.6545490015
 30
0.0
 11
119.1589034953
 21
30.6545490015
 31
0.0
  0
LINE
  5
96
  8
0
  6
CONTINUOUS
 62
     7
 10
114.3472029996
 20
34.6629381716
 30
0.0
 11
114.3472029996
 21
40.6629381716
 31
0.0
  0
ARC
  5
97
  8
0
  6
CONTINUOUS
 62
     7
 10
112.3472029996
 20
40.6629381716
 30
0.0
 40
2.0
 50
0.0
 51
180.0
  0
LINE
  5
98
  8
0
  6
CONTINUOUS
 62
     7
 10
122.6204419569
 20
32.0007028476
 30
0.0
 11
121.6973650338
 21
32.0007028476
 31
0.0
  0
LINE
  5
99
  8
0
  6
CONTINUOUS
 62
     7
 10
42.3472029996
 20
90.1629381716
 30
0.0
 11
42.3472029996
 21
25.1629381716
 31
0.0
  0
LINE
  5
9A
  8
0
  6
CONTINUOUS
 62
     7
 10
87.3472029996
 20
95.6629381716
 30
0.0
 11
62.3472029996
 21
95.6629381716
 31
0.0
  0
LINE
  5
9B
  8
0
  6
CONTINUOUS
 62
     7
 10
107.3472029996
 20
25.1629381716
 30
0.0
 11
107.3472029996
 21
90.1629381716
 31
0.0
  0
LINE
  5
9C
  8
0
  6
CONTINUOUS
 62
     7
 10
29.3472029996
 20
47.6629381716
 30
0.0
 11
32.3472029996
 21
47.6629381716
 31
0.0
  0
CIRCLE
  5
9D
  8
0
  6
CONTINUOUS
 62
     7
 10
112.3472029996
 20
57.6629381716
 30
0.0
 40
1.5
  0
CIRCLE
  5
9E
  8
0
  6
CONTINUOUS
 62
     7
 10
37.3472029996
 20
57.6629381716
 30
0.0
 40
1.5
  0
LINE
  5
9F
  8
0
  6
CONTINUOUS
 62
     7
 10
110.3472029996
 20
40.6629381716
 30
0.0
 11
110.3472029996
 21
34.6629381716
 31
0.0
  0
ARC
  5
A0
  8
0
  6
CONTINUOUS
 62
     7
 10
112.3472029996
 20
34.6629381716
 30
0.0
 40
2.0
 50
180.0
 51
0.0
  0
CIRCLE
  5
A1
  8
0
  6
CONTINUOUS
 62
     7
 10
35.3472029996
 20
25.6629381716
 30
0.0
 40
1.5
  0
CIRCLE
  5
A2
  8
0
  6
CONTINUOUS
 62
     7
 10
35.3472029996
 20
89.6629381716
 30
0.0
 40
1.5
  0
LINE
  5
A3
  8
0
  6
CONTINUOUS
 62
     7
 10
107.3472029996
 20
90.1629381716
 30
0.0
 11
42.3472029996
 21
90.1629381716
 31
0.0
  0
CIRCLE
  5
A4
  8
0
  6
CONTINUOUS
 62
     7
 10
114.3472029996
 20
25.6629381716
 30
0.0
 40
1.5
  0
LINE
  5
A5
  8
0
  6
CONTINUOUS
 62
     7
 10
42.3472029996
 20
25.1629381716
 30
0.0
 11
107.3472029996
 21
25.1629381716
 31
0.0
  0
ARC
  5
A6
  8
0
  6
CONTINUOUS
 62
     7
 10
119.8472029996
 20
22.1629381716
 30
0.0
 40
5.0
 50
270.0
 51
0.0
  0
ARC
  5
A7
  8
0
  6
CONTINUOUS
 62
     7
 10
29.8472029996
 20
22.1629381716
 30
0.0
 40
5.0
 50
180.0
 51
270.0
  0
LINE
  5
A8
  8
0
  6
CONTINUOUS
 62
     7
 10
32.3472029996
 20
47.6629381716
 30
0.0
 11
32.3472029996
 21
67.6629381716
 31
0.0
  0
LINE
  5
A9
  8
0
  6
CONTINUOUS
 62
     7
 10
32.3472029996
 20
67.6629381716
 30
0.0
 11
29.3472029996
 21
67.6629381716
 31
0.0
  0
LINE
  5
AA
  8
0
  6
CONTINUOUS
 62
     7
 10
29.3472029996
 20
67.6629381716
 30
0.0
 11
29.3472029996
 21
47.6629381716
 31
0.0
  0
LINE
  5
AB
  8
0
  6
CONTINUOUS
 62
     7
 10
117.3472029996
 20
47.6629381716
 30
0.0
 11
120.3472029996
 21
47.6629381716
 31
0.0
  0
LINE
  5
AC
  8
0
  6
CONTINUOUS
 62
     7
 10
62.3472029996
 20
22.6629381716
 30
0.0
 11
62.3472029996
 21
19.6629381716
 31
0.0
  0
LINE
  5
AD
  8
0
  6
CONTINUOUS
 62
     7
 10
24.8472029996
 20
93.1629381716
 30
0.0
 11
24.8472029996
 21
22.1629381716
 31
0.0
  0
CIRCLE
  5
AE
  8
0
  6
CONTINUOUS
 62
     7
 10
114.3472029996
 20
89.6629381716
 30
0.0
 40
1.5
  0
LINE
  5
AF
  8
0
  6
CONTINUOUS
 62
     7
 10
119.1589034953
 20
45.4237797707
 30
0.0
 11
119.6438794569
 21
45.4237797707
 31
0.0
  0
ARC
  5
B0
  8
0
  6
CONTINUOUS
 62
     7
 10
119.8472029996
 20
93.1629381716
 30
0.0
 40
5.0
 50
0.0
 51
90.0
  0
ARC
  5
B1
  8
0
  6
CONTINUOUS
 62
     7
 10
29.8472029996
 20
93.1629381716
 30
0.0
 40
5.0
 50
90.0
 51
180.0
  0
LINE
  5
B2
  8
0
  6
CONTINUOUS
 62
     7
 10
29.8472029996
 20
17.1629381716
 30
0.0
 11
119.8472029996
 21
17.1629381716
 31
0.0
  0
ARC
  5
B3
  8
0
  6
CONTINUOUS
 62
     7
 10
117.0585270572
 20
43.9004529521
 30
0.0
 40
1.553663353782627
 50
179.0953949199
 51
270.532484802
  0
ARC
  5
B4
  8
0
  6
CONTINUOUS
 62
     7
 10
117.0638617014
 20
43.9438584387
 30
0.0
 40
1.556852112322201
 50
358.9292442411
 51
89.8197579852
  0
ARC
  5
B5
  8
0
  6
CONTINUOUS
 62
     7
 10
117.0585270572
 20
32.1312221829
 30
0.0
 40
1.553663353782629
 50
179.0953949199
 51
270.532484802
  0
ARC
  5
B6
  8
0
  6
CONTINUOUS
 62
     7
 10
117.0811005986
 20
43.8864371981
 30
0.0
 40
1.53960199439388
 50
269.6972720163
 51
1.0542822166
  0
ARC
  5
B7
  8
0
  6
CONTINUOUS
 62
     7
 10
117.0678261872
 20
32.1686502754
 30
0.0
 40
1.562822081529906
 50
89.9657917582
 51
180.4729180395
  0
ARC
  5
B8
  8
0
  6
CONTINUOUS
 62
     7
 10
117.0678261872
 20
43.9378810446
 30
0.0
 40
1.562822081529896
 50
89.9657917582
 51
180.4729180395
  0
ARC
  5
B9
  8
0
  6
CONTINUOUS
 62
     7
 10
117.0811005986
 20
32.1172064289
 30
0.0
 40
1.539601994393838
 50
269.6972720163
 51
1.0542822166
  0
ARC
  5
BA
  8
0
  6
CONTINUOUS
 62
     7
 10
117.0638617014
 20
32.1746276695
 30
0.0
 40
1.556852112322185
 50
358.9292442411
 51
89.8197579852
  0
POLYLINE
  5
BB
  8
0
  6
CONTINUOUS
 62
     7
 66
     1
 10
0.0
 20
0.0
 30
0.0
 70
   128
  0
VERTEX
  5
1D3
  8
0
  6
CONTINUOUS
 62
     7
 10
116.4125092645
 20
43.116087463
 30
0.0
  0
VERTEX
  5
1D4
  8
0
  6
CONTINUOUS
 62
     7
 10
116.7621388029
 20
42.9295209852
 30
0.0
  0
VERTEX
  5
1D5
  8
0
  6
CONTINUOUS
 62
     7
 10
117.0711631107
 20
42.8853182322
 30
0.0
  0
SEQEND
  5
1DF
  8
0
  6
CONTINUOUS
 62
     7
  0
POLYLINE
  5
BC
  8
0
  6
CONTINUOUS
 62
     7
 66
     1
 10
0.0
 20
0.0
 30
0.0
 70
   128
  0
VERTEX
  5
1D6
  8
0
  6
CONTINUOUS
 62
     7
 10
116.0435188799
 20
43.9177701553
 30
0.0
  0
VERTEX
  5
1D7
  8
0
  6
CONTINUOUS
 62
     7
 10
116.1561787628
 20
43.4228583034
 30
0.0
  0
VERTEX
  5
1D8
  8
0
  6
CONTINUOUS
 62
     7
 10
116.4125092645
 20
43.116087463
 30
0.0
  0
SEQEND
  5
1E0
  8
0
  6
CONTINUOUS
 62
     7
  0
ARC
  5
BD
  8
0
  6
CONTINUOUS
 62
     7
 10
117.0715538911
 20
43.8960765813
 30
0.0
 40
1.010758424608288
 50
269.9778482518
 51
1.4683435387
  0
ARC
  5
BE
  8
0
  6
CONTINUOUS
 62
     7
 10
117.064239823
 20
43.9442641588
 30
0.0
 40
1.017984598148521
 50
358.7454931035
 51
90.2191697738
  0
ARC
  5
BF
  8
0
  6
CONTINUOUS
 62
     7
 10
117.0487834784
 20
43.9563048556
 30
0.0
 40
1.00600290058197
 50
89.3414661238
 51
182.1952381701
  0
POLYLINE
  5
C0
  8
0
  6
CONTINUOUS
 62
     7
 66
     1
 10
0.0
 20
0.0
 30
0.0
 70
   128
  0
VERTEX
  5
1D9
  8
0
  6
CONTINUOUS
 62
     7
 10
116.4125092645
 20
31.3468566938
 30
0.0
  0
VERTEX
  5
1DA
  8
0
  6
CONTINUOUS
 62
     7
 10
116.7621388029
 20
31.160290216
 30
0.0
  0
VERTEX
  5
1DB
  8
0
  6
CONTINUOUS
 62
     7
 10
117.0711631107
 20
31.116087463
 30
0.0
  0
SEQEND
  5
1E1
  8
0
  6
CONTINUOUS
 62
     7
  0
POLYLINE
  5
C1
  8
0
  6
CONTINUOUS
 62
     7
 66
     1
 10
0.0
 20
0.0
 30
0.0
 70
   128
  0
VERTEX
  5
1DC
  8
0
  6
CONTINUOUS
 62
     7
 10
116.0435188799
 20
32.1485393861
 30
0.0
  0
VERTEX
  5
1DD
  8
0
  6
CONTINUOUS
 62
     7
 10
116.1561787628
 20
31.6536275342
 30
0.0
  0
VERTEX
  5
1DE
  8
0
  6
CONTINUOUS
 62
     7
 10
116.4125092645
 20
31.3468566938
 30
0.0
  0
SEQEND
  5
1E2
  8
0
  6
CONTINUOUS
 62
     7
  0
ARC
  5
C2
  8
0
  6
CONTINUOUS
 62
     7
 10
117.064239823
 20
32.1750333895
 30
0.0
 40
1.017984598148522
 50
358.7454931035
 51
90.2191697738
  0
ARC
  5
C3
  8
0
  6
CONTINUOUS
 62
     7
 10
117.0715538911
 20
32.1268458121
 30
0.0
 40
1.010758424608276
 50
269.9778482518
 51
1.4683435387
  0
ARC
  5
C4
  8
0
  6
CONTINUOUS
 62
     7
 10
117.0487834784
 20
32.1870740863
 30
0.0
 40
1.006002900581963
 50
89.3414661238
 51
182.1952381701
  0
ARC
  5
C5
  8
0
  6
CONTINUOUS
 62
     7
 10
221.7381099837
 20
93.1629381716
 30
0.0
 40
5.0
 50
0.0
 51
90.0
  0
ARC
  5
C6
  8
0
  6
CONTINUOUS
 62
     7
 10
221.7381099837
 20
22.1629381716
 30
0.0
 40
5.0
 50
270.0
 51
0.0
  0
ARC
  5
C7
  8
0
  6
CONTINUOUS
 62
     7
 10
131.7381099837
 20
22.1629381716
 30
0.0
 40
4.999999999999996
 50
180.0
 51
270.0
  0
ARC
  5
C8
  8
0
  6
CONTINUOUS
 62
     7
 10
131.7381099837
 20
93.1629381716
 30
0.0
 40
5.0
 50
90.0
 51
180.0
  0
CIRCLE
  5
C9
  8
0
  6
CONTINUOUS
 62
     7
 10
216.2381099837
 20
25.6629381716
 30
0.0
 40
1.5
  0
CIRCLE
  5
CA
  8
0
  6
CONTINUOUS
 62
     7
 10
216.2381099837
 20
89.6629381716
 30
0.0
 40
1.5
  0
CIRCLE
  5
CB
  8
0
  6
CONTINUOUS
 62
     7
 10
137.2381099837
 20
89.6629381716
 30
0.0
 40
1.5
  0
CIRCLE
  5
CC
  8
0
  6
CONTINUOUS
 62
     7
 10
137.2381099837
 20
25.6629381716
 30
0.0
 40
1.5
  0
LINE
  5
CD
  8
0
  6
CONTINUOUS
 62
     7
 10
164.2381099837
 20
19.6629381716
 30
0.0
 11
189.2381099837
 21
19.6629381716
 31
0.0
  0
LINE
  5
CE
  8
0
  6
CONTINUOUS
 62
     7
 10
189.2381099837
 20
19.6629381716
 30
0.0
 11
189.2381099837
 21
22.6629381716
 31
0.0
  0
LINE
  5
CF
  8
0
  6
CONTINUOUS
 62
     7
 10
189.2381099837
 20
22.6629381716
 30
0.0
 11
164.2381099837
 21
22.6629381716
 31
0.0
  0
LINE
  5
D0
  8
0
  6
CONTINUOUS
 62
     7
 10
164.2381099837
 20
22.6629381716
 30
0.0
 11
164.2381099837
 21
19.6629381716
 31
0.0
  0
LINE
  5
D1
  8
0
  6
CONTINUOUS
 62
     7
 10
164.2381099837
 20
92.6629381716
 30
0.0
 11
189.2381099837
 21
92.6629381716
 31
0.0
  0
LINE
  5
D2
  8
0
  6
CONTINUOUS
 62
     7
 10
189.2381099837
 20
92.6629381716
 30
0.0
 11
189.2381099837
 21
95.6629381716
 31
0.0
  0
LINE
  5
D3
  8
0
  6
CONTINUOUS
 62
     7
 10
189.2381099837
 20
95.6629381716
 30
0.0
 11
164.2381099837
 21
95.6629381716
 31
0.0
  0
LINE
  5
D4
  8
0
  6
CONTINUOUS
 62
     7
 10
164.2381099837
 20
95.6629381716
 30
0.0
 11
164.2381099837
 21
92.6629381716
 31
0.0
  0
LINE
  5
D5
  8
0
  6
CONTINUOUS
 62
     7
 10
219.2381099837
 20
47.6629381716
 30
0.0
 11
222.2381099837
 21
47.6629381716
 31
0.0
  0
LINE
  5
D6
  8
0
  6
CONTINUOUS
 62
     7
 10
222.2381099837
 20
47.6629381716
 30
0.0
 11
222.2381099837
 21
67.6629381716
 31
0.0
  0
LINE
  5
D7
  8
0
  6
CONTINUOUS
 62
     7
 10
222.2381099837
 20
67.6629381716
 30
0.0
 11
219.2381099837
 21
67.6629381716
 31
0.0
  0
LINE
  5
D8
  8
0
  6
CONTINUOUS
 62
     7
 10
219.2381099837
 20
67.6629381716
 30
0.0
 11
219.2381099837
 21
47.6629381716
 31
0.0
  0
LINE
  5
D9
  8
0
  6
CONTINUOUS
 62
     7
 10
131.2381099837
 20
47.6629381716
 30
0.0
 11
134.2381099837
 21
47.6629381716
 31
0.0
  0
LINE
  5
DA
  8
0
  6
CONTINUOUS
 62
     7
 10
134.2381099837
 20
47.6629381716
 30
0.0
 11
134.2381099837
 21
67.6629381716
 31
0.0
  0
LINE
  5
DB
  8
0
  6
CONTINUOUS
 62
     7
 10
134.2381099837
 20
67.6629381716
 30
0.0
 11
131.2381099837
 21
67.6629381716
 31
0.0
  0
LINE
  5
DC
  8
0
  6
CONTINUOUS
 62
     7
 10
131.2381099837
 20
67.6629381716
 30
0.0
 11
131.2381099837
 21
47.6629381716
 31
0.0
  0
LINE
  5
DD
  8
0
  6
CONTINUOUS
 62
     7
 10
131.7381099837
 20
17.1629381716
 30
0.0
 11
221.7381099837
 21
17.1629381716
 31
0.0
  0
LINE
  5
DE
  8
0
  6
CONTINUOUS
 62
     7
 10
126.7381099837
 20
93.1629381716
 30
0.0
 11
126.7381099837
 21
22.1629381716
 31
0.0
  0
LINE
  5
DF
  8
0
  6
CONTINUOUS
 62
     7
 10
221.7381099837
 20
98.1629381716
 30
0.0
 11
131.7381099837
 21
98.1629381716
 31
0.0
  0
LINE
  5
E0
  8
0
  6
CONTINUOUS
 62
     7
 10
226.7381099837
 20
22.1629381716
 30
0.0
 11
226.7381099837
 21
93.1629381716
 31
0.0
  0
LINE
  5
E1
  8
0
  6
CONTINUOUS
 62
     7
 10
276.6032630578
 20
17.5956275919
 30
0.0
 11
276.6032630578
 21
20.5956275919
 31
0.0
  0
LINE
  5
E2
  8
0
  6
CONTINUOUS
 62
     7
 10
256.6032630578
 20
17.5956275919
 30
0.0
 11
276.6032630578
 21
17.5956275919
 31
0.0
  0
LINE
  5
E3
  8
0
  6
CONTINUOUS
 62
     7
 10
256.6032630578
 20
20.5956275919
 30
0.0
 11
256.6032630578
 21
17.5956275919
 31
0.0
  0
LINE
  5
E4
  8
0
  6
CONTINUOUS
 62
     7
 10
228.6032630578
 20
42.0956275919
 30
0.0
 11
231.6032630578
 21
42.0956275919
 31
0.0
  0
LINE
  5
E5
  8
0
  6
CONTINUOUS
 62
     7
 10
228.6032630578
 20
62.0956275919
 30
0.0
 11
228.6032630578
 21
42.0956275919
 31
0.0
  0
LINE
  5
E6
  8
0
  6
CONTINUOUS
 62
     7
 10
231.6032630578
 20
62.0956275919
 30
0.0
 11
228.6032630578
 21
62.0956275919
 31
0.0
  0
LINE
  5
E7
  8
0
  6
CONTINUOUS
 62
     7
 10
256.6032630578
 20
86.5956275919
 30
0.0
 11
256.6032630578
 21
83.5956275919
 31
0.0
  0
LINE
  5
E8
  8
0
  6
CONTINUOUS
 62
     7
 10
276.6032630578
 20
86.5956275919
 30
0.0
 11
256.6032630578
 21
86.5956275919
 31
0.0
  0
LINE
  5
E9
  8
0
  6
CONTINUOUS
 62
     7
 10
276.6032630578
 20
83.5956275919
 30
0.0
 11
276.6032630578
 21
86.5956275919
 31
0.0
  0
LINE
  5
EA
  8
0
  6
CONTINUOUS
 62
     7
 10
304.6032630578
 20
62.0956275919
 30
0.0
 11
301.6032630578
 21
62.0956275919
 31
0.0
  0
LINE
  5
EB
  8
0
  6
CONTINUOUS
 62
     7
 10
304.6032630578
 20
42.0956275919
 30
0.0
 11
304.6032630578
 21
62.0956275919
 31
0.0
  0
LINE
  5
EC
  8
0
  6
CONTINUOUS
 62
     7
 10
301.6032630578
 20
42.0956275919
 30
0.0
 11
304.6032630578
 21
42.0956275919
 31
0.0
  0
LINE
  5
ED
  8
0
  6
CONTINUOUS
 62
     7
 10
278.1032630578
 20
63.7956275919
 30
0.0
 11
263.1032630578
 21
63.7956275919
 31
0.0
  0
LINE
  5
EE
  8
0
  6
CONTINUOUS
 62
     7
 10
263.1032630578
 20
63.7956275919
 30
0.0
 11
263.1032630578
 21
54.7956275919
 31
0.0
  0
LINE
  5
EF
  8
0
  6
CONTINUOUS
 62
     7
 10
263.1032630578
 20
54.7956275919
 30
0.0
 11
278.1032630578
 21
54.7956275919
 31
0.0
  0
LINE
  5
F0
  8
0
  6
CONTINUOUS
 62
     7
 10
278.1032630578
 20
54.7956275919
 30
0.0
 11
278.1032630578
 21
63.7956275919
 31
0.0
  0
LINE
  5
F1
  8
0
  6
CONTINUOUS
 62
     7
 10
231.6032630578
 20
20.5956275919
 30
0.0
 11
256.6032630578
 21
20.5956275919
 31
0.0
  0
LINE
  5
F2
  8
0
  6
CONTINUOUS
 62
     7
 10
231.6032630578
 20
83.5956275919
 30
0.0
 11
231.6032630578
 21
62.0956275919
 31
0.0
  0
LINE
  5
F3
  8
0
  6
CONTINUOUS
 62
     7
 10
301.6032630578
 20
83.5956275919
 30
0.0
 11
276.6032630578
 21
83.5956275919
 31
0.0
  0
LINE
  5
F4
  8
0
  6
CONTINUOUS
 62
     7
 10
301.6032630578
 20
20.5956275919
 30
0.0
 11
301.6032630578
 21
42.0956275919
 31
0.0
  0
LINE
  5
F5
  8
0
  6
CONTINUOUS
 62
     7
 10
301.6032630578
 20
62.0956275919
 30
0.0
 11
301.6032630578
 21
83.5956275919
 31
0.0
  0
LINE
  5
F6
  8
0
  6
CONTINUOUS
 62
     7
 10
231.6032630578
 20
42.0956275919
 30
0.0
 11
231.6032630578
 21
20.5956275919
 31
0.0
  0
LINE
  5
F7
  8
0
  6
CONTINUOUS
 62
     7
 10
256.6032630578
 20
83.5956275919
 30
0.0
 11
231.6032630578
 21
83.5956275919
 31
0.0
  0
LINE
  5
F8
  8
0
  6
CONTINUOUS
 62
     7
 10
276.6032630578
 20
20.5956275919
 30
0.0
 11
301.6032630578
 21
20.5956275919
 31
0.0
  0
LINE
  5
F9
  8
0
  6
CONTINUOUS
 62
     7
 10
242.3284767976
 20
170.8619678816
 30
0.0
 11
242.3284767976
 21
173.8619678816
 31
0.0
  0
LINE
  5
FA
  8
0
  6
CONTINUOUS
 62
     7
 10
222.3284767976
 20
170.8619678816
 30
0.0
 11
242.3284767976
 21
170.8619678816
 31
0.0
  0
LINE
  5
FB
  8
0
  6
CONTINUOUS
 62
     7
 10
222.3284767976
 20
173.8619678816
 30
0.0
 11
222.3284767976
 21
170.8619678816
 31
0.0
  0
LINE
  5
FC
  8
0
  6
CONTINUOUS
 62
     7
 10
194.3284767976
 20
195.3619678816
 30
0.0
 11
197.3284767976
 21
195.3619678816
 31
0.0
  0
LINE
  5
FD
  8
0
  6
CONTINUOUS
 62
     7
 10
194.3284767976
 20
215.3619678816
 30
0.0
 11
194.3284767976
 21
195.3619678816
 31
0.0
  0
LINE
  5
FE
  8
0
  6
CONTINUOUS
 62
     7
 10
197.3284767976
 20
215.3619678816
 30
0.0
 11
194.3284767976
 21
215.3619678816
 31
0.0
  0
LINE
  5
FF
  8
0
  6
CONTINUOUS
 62
     7
 10
222.3284767976
 20
239.8619678816
 30
0.0
 11
222.3284767976
 21
236.8619678816
 31
0.0
  0
LINE
  5
100
  8
0
  6
CONTINUOUS
 62
     7
 10
242.3284767976
 20
239.8619678816
 30
0.0
 11
222.3284767976
 21
239.8619678816
 31
0.0
  0
LINE
  5
101
  8
0
  6
CONTINUOUS
 62
     7
 10
242.3284767976
 20
236.8619678816
 30
0.0
 11
242.3284767976
 21
239.8619678816
 31
0.0
  0
LINE
  5
102
  8
0
  6
CONTINUOUS
 62
     7
 10
270.3284767976
 20
215.3619678816
 30
0.0
 11
267.3284767976
 21
215.3619678816
 31
0.0
  0
LINE
  5
103
  8
0
  6
CONTINUOUS
 62
     7
 10
270.3284767976
 20
195.3619678816
 30
0.0
 11
270.3284767976
 21
215.3619678816
 31
0.0
  0
LINE
  5
104
  8
0
  6
CONTINUOUS
 62
     7
 10
267.3284767976
 20
195.3619678816
 30
0.0
 11
270.3284767976
 21
195.3619678816
 31
0.0
  0
LINE
  5
105
  8
0
  6
CONTINUOUS
 62
     7
 10
197.3284767976
 20
173.8619678816
 30
0.0
 11
222.3284767976
 21
173.8619678816
 31
0.0
  0
LINE
  5
106
  8
0
  6
CONTINUOUS
 62
     7
 10
197.3284767976
 20
236.8619678816
 30
0.0
 11
197.3284767976
 21
215.3619678816
 31
0.0
  0
LINE
  5
107
  8
0
  6
CONTINUOUS
 62
     7
 10
267.3284767976
 20
236.8619678816
 30
0.0
 11
242.3284767976
 21
236.8619678816
 31
0.0
  0
LINE
  5
108
  8
0
  6
CONTINUOUS
 62
     7
 10
267.3284767976
 20
173.8619678816
 30
0.0
 11
267.3284767976
 21
195.3619678816
 31
0.0
  0
LINE
  5
109
  8
0
  6
CONTINUOUS
 62
     7
 10
267.3284767976
 20
215.3619678816
 30
0.0
 11
267.3284767976
 21
236.8619678816
 31
0.0
  0
LINE
  5
10A
  8
0
  6
CONTINUOUS
 62
     7
 10
197.3284767976
 20
195.3619678816
 30
0.0
 11
197.3284767976
 21
173.8619678816
 31
0.0
  0
LINE
  5
10B
  8
0
  6
CONTINUOUS
 62
     7
 10
222.3284767976
 20
236.8619678816
 30
0.0
 11
197.3284767976
 21
236.8619678816
 31
0.0
  0
LINE
  5
10C
  8
0
  6
CONTINUOUS
 62
     7
 10
242.3284767976
 20
173.8619678816
 30
0.0
 11
267.3284767976
 21
173.8619678816
 31
0.0
  0
LINE
  5
10D
  8
0
  6
CONTINUOUS
 62
     7
 10
25.9495322177
 20
166.0442305353
 30
0.0
 11
25.9495322177
 21
103.0442305353
 31
0.0
  0
LINE
  5
10E
  8
0
  6
CONTINUOUS
 62
     7
 10
61.9495322177
 20
169.0442305353
 30
0.0
 11
61.9495322177
 21
166.0442305353
 31
0.0
  0
LINE
  5
10F
  8
0
  6
CONTINUOUS
 62
     7
 10
86.9495322177
 20
169.0442305353
 30
0.0
 11
61.9495322177
 21
169.0442305353
 31
0.0
  0
LINE
  5
110
  8
0
  6
CONTINUOUS
 62
     7
 10
86.9495322177
 20
166.0442305353
 30
0.0
 11
86.9495322177
 21
169.0442305353
 31
0.0
  0
LINE
  5
111
  8
0
  6
CONTINUOUS
 62
     7
 10
122.9495322177
 20
166.0442305353
 30
0.0
 11
86.9495322177
 21
166.0442305353
 31
0.0
  0
LINE
  5
112
  8
0
  6
CONTINUOUS
 62
     7
 10
122.9495322177
 20
103.0442305353
 30
0.0
 11
122.9495322177
 21
166.0442305353
 31
0.0
  0
LINE
  5
113
  8
0
  6
CONTINUOUS
 62
     7
 10
86.9495322177
 20
100.0442305353
 30
0.0
 11
86.9495322177
 21
103.0442305353
 31
0.0
  0
LINE
  5
114
  8
0
  6
CONTINUOUS
 62
     7
 10
61.9495322177
 20
100.0442305353
 30
0.0
 11
86.9495322177
 21
100.0442305353
 31
0.0
  0
LINE
  5
115
  8
0
  6
CONTINUOUS
 62
     7
 10
61.9495322177
 20
103.0442305353
 30
0.0
 11
61.9495322177
 21
100.0442305353
 31
0.0
  0
LINE
  5
116
  8
0
  6
CONTINUOUS
 62
     7
 10
25.9495322177
 20
103.0442305353
 30
0.0
 11
61.9495322177
 21
103.0442305353
 31
0.0
  0
LINE
  5
117
  8
0
  6
CONTINUOUS
 62
     7
 10
61.9495322177
 20
136.0442305353
 30
0.0
 11
41.9495322177
 21
136.0442305353
 31
0.0
  0
LINE
  5
118
  8
0
  6
CONTINUOUS
 62
     7
 10
41.9495322177
 20
136.0442305353
 30
0.0
 11
41.9495322177
 21
133.0442305353
 31
0.0
  0
LINE
  5
119
  8
0
  6
CONTINUOUS
 62
     7
 10
41.9495322177
 20
133.0442305353
 30
0.0
 11
61.9495322177
 21
133.0442305353
 31
0.0
  0
LINE
  5
11A
  8
0
  6
CONTINUOUS
 62
     7
 10
61.9495322177
 20
133.0442305353
 30
0.0
 11
61.9495322177
 21
136.0442305353
 31
0.0
  0
LINE
  5
11B
  8
0
  6
CONTINUOUS
 62
     7
 10
86.9495322177
 20
133.0442305353
 30
0.0
 11
106.9495322177
 21
133.0442305353
 31
0.0
  0
LINE
  5
11C
  8
0
  6
CONTINUOUS
 62
     7
 10
106.9495322177
 20
133.0442305353
 30
0.0
 11
106.9495322177
 21
136.0442305353
 31
0.0
  0
LINE
  5
11D
  8
0
  6
CONTINUOUS
 62
     7
 10
106.9495322177
 20
136.0442305353
 30
0.0
 11
86.9495322177
 21
136.0442305353
 31
0.0
  0
LINE
  5
11E
  8
0
  6
CONTINUOUS
 62
     7
 10
86.9495322177
 20
136.0442305353
 30
0.0
 11
86.9495322177
 21
133.0442305353
 31
0.0
  0
LINE
  5
11F
  8
0
  6
CONTINUOUS
 62
     7
 10
41.9495322177
 20
111.0442305353
 30
0.0
 11
61.9495322177
 21
111.0442305353
 31
0.0
  0
LINE
  5
120
  8
0
  6
CONTINUOUS
 62
     7
 10
61.9495322177
 20
111.0442305353
 30
0.0
 11
61.9495322177
 21
114.0442305353
 31
0.0
  0
LINE
  5
121
  8
0
  6
CONTINUOUS
 62
     7
 10
61.9495322177
 20
114.0442305353
 30
0.0
 11
41.9495322177
 21
114.0442305353
 31
0.0
  0
LINE
  5
122
  8
0
  6
CONTINUOUS
 62
     7
 10
41.9495322177
 20
114.0442305353
 30
0.0
 11
41.9495322177
 21
111.0442305353
 31
0.0
  0
LINE
  5
123
  8
0
  6
CONTINUOUS
 62
     7
 10
86.9495322177
 20
111.0442305353
 30
0.0
 11
106.9495322177
 21
111.0442305353
 31
0.0
  0
LINE
  5
124
  8
0
  6
CONTINUOUS
 62
     7
 10
106.9495322177
 20
111.0442305353
 30
0.0
 11
106.9495322177
 21
114.0442305353
 31
0.0
  0
LINE
  5
125
  8
0
  6
CONTINUOUS
 62
     7
 10
106.9495322177
 20
114.0442305353
 30
0.0
 11
86.9495322177
 21
114.0442305353
 31
0.0
  0
LINE
  5
126
  8
0
  6
CONTINUOUS
 62
     7
 10
86.9495322177
 20
114.0442305353
 30
0.0
 11
86.9495322177
 21
111.0442305353
 31
0.0
  0
LINE
  5
127
  8
0
  6
CONTINUOUS
 62
     7
 10
28.9495322177
 20
124.5442305353
 30
0.0
 11
28.9495322177
 21
144.5442305353
 31
0.0
  0
LINE
  5
128
  8
0
  6
CONTINUOUS
 62
     7
 10
31.9495322177
 20
124.5442305353
 30
0.0
 11
28.9495322177
 21
124.5442305353
 31
0.0
  0
LINE
  5
129
  8
0
  6
CONTINUOUS
 62
     7
 10
31.9495322177
 20
144.5442305353
 30
0.0
 11
31.9495322177
 21
124.5442305353
 31
0.0
  0
LINE
  5
12A
  8
0
  6
CONTINUOUS
 62
     7
 10
28.9495322177
 20
144.5442305353
 30
0.0
 11
31.9495322177
 21
144.5442305353
 31
0.0
  0
LINE
  5
12B
  8
0
  6
CONTINUOUS
 62
     7
 10
119.9495322177
 20
124.5442305353
 30
0.0
 11
116.9495322177
 21
124.5442305353
 31
0.0
  0
LINE
  5
12C
  8
0
  6
CONTINUOUS
 62
     7
 10
119.9495322177
 20
144.5442305353
 30
0.0
 11
119.9495322177
 21
124.5442305353
 31
0.0
  0
LINE
  5
12D
  8
0
  6
CONTINUOUS
 62
     7
 10
116.9495322177
 20
144.5442305353
 30
0.0
 11
119.9495322177
 21
144.5442305353
 31
0.0
  0
LINE
  5
12E
  8
0
  6
CONTINUOUS
 62
     7
 10
116.9495322177
 20
124.5442305353
 30
0.0
 11
116.9495322177
 21
144.5442305353
 31
0.0
  0
LINE
  5
12F
  8
0
  6
CONTINUOUS
 62
     7
 10
61.9495322177
 20
166.0442305353
 30
0.0
 11
25.9495322177
 21
166.0442305353
 31
0.0
  0
LINE
  5
130
  8
0
  6
CONTINUOUS
 62
     7
 10
86.9495322177
 20
103.0442305353
 30
0.0
 11
122.9495322177
 21
103.0442305353
 31
0.0
  0
LINE
  5
131
  8
0
  6
CONTINUOUS
 62
     7
 10
123.9983737269
 20
165.9894014784
 30
0.0
 11
123.9983737269
 21
102.9894014784
 31
0.0
  0
LINE
  5
132
  8
0
  6
CONTINUOUS
 62
     7
 10
159.9983737269
 20
168.9894014784
 30
0.0
 11
159.9983737269
 21
165.9894014784
 31
0.0
  0
LINE
  5
133
  8
0
  6
CONTINUOUS
 62
     7
 10
184.9983737269
 20
168.9894014784
 30
0.0
 11
159.9983737269
 21
168.9894014784
 31
0.0
  0
LINE
  5
134
  8
0
  6
CONTINUOUS
 62
     7
 10
184.9983737269
 20
165.9894014784
 30
0.0
 11
184.9983737269
 21
168.9894014784
 31
0.0
  0
LINE
  5
135
  8
0
  6
CONTINUOUS
 62
     7
 10
220.9983737269
 20
165.9894014784
 30
0.0
 11
184.9983737269
 21
165.9894014784
 31
0.0
  0
LINE
  5
136
  8
0
  6
CONTINUOUS
 62
     7
 10
220.9983737269
 20
102.9894014784
 30
0.0
 11
220.9983737269
 21
165.9894014784
 31
0.0
  0
LINE
  5
137
  8
0
  6
CONTINUOUS
 62
     7
 10
184.9983737269
 20
99.9894014784
 30
0.0
 11
184.9983737269
 21
102.9894014784
 31
0.0
  0
LINE
  5
138
  8
0
  6
CONTINUOUS
 62
     7
 10
159.9983737269
 20
99.9894014784
 30
0.0
 11
184.9983737269
 21
99.9894014784
 31
0.0
  0
LINE
  5
139
  8
0
  6
CONTINUOUS
 62
     7
 10
159.9983737269
 20
102.9894014784
 30
0.0
 11
159.9983737269
 21
99.9894014784
 31
0.0
  0
LINE
  5
13A
  8
0
  6
CONTINUOUS
 62
     7
 10
123.9983737269
 20
102.9894014784
 30
0.0
 11
159.9983737269
 21
102.9894014784
 31
0.0
  0
LINE
  5
13B
  8
0
  6
CONTINUOUS
 62
     7
 10
159.9983737269
 20
135.9894014784
 30
0.0
 11
139.9983737269
 21
135.9894014784
 31
0.0
  0
LINE
  5
13C
  8
0
  6
CONTINUOUS
 62
     7
 10
139.9983737269
 20
135.9894014784
 30
0.0
 11
139.9983737269
 21
132.9894014784
 31
0.0
  0
LINE
  5
13D
  8
0
  6
CONTINUOUS
 62
     7
 10
139.9983737269
 20
132.9894014784
 30
0.0
 11
159.9983737269
 21
132.9894014784
 31
0.0
  0
LINE
  5
13E
  8
0
  6
CONTINUOUS
 62
     7
 10
159.9983737269
 20
132.9894014784
 30
0.0
 11
159.9983737269
 21
135.9894014784
 31
0.0
  0
LINE
  5
13F
  8
0
  6
CONTINUOUS
 62
     7
 10
184.9983737269
 20
132.9894014784
 30
0.0
 11
204.9983737269
 21
132.9894014784
 31
0.0
  0
LINE
  5
140
  8
0
  6
CONTINUOUS
 62
     7
 10
204.9983737269
 20
132.9894014784
 30
0.0
 11
204.9983737269
 21
135.9894014784
 31
0.0
  0
LINE
  5
141
  8
0
  6
CONTINUOUS
 62
     7
 10
204.9983737269
 20
135.9894014784
 30
0.0
 11
184.9983737269
 21
135.9894014784
 31
0.0
  0
LINE
  5
142
  8
0
  6
CONTINUOUS
 62
     7
 10
184.9983737269
 20
135.9894014784
 30
0.0
 11
184.9983737269
 21
132.9894014784
 31
0.0
  0
LINE
  5
143
  8
0
  6
CONTINUOUS
 62
     7
 10
139.9983737269
 20
110.9894014784
 30
0.0
 11
159.9983737269
 21
110.9894014784
 31
0.0
  0
LINE
  5
144
  8
0
  6
CONTINUOUS
 62
     7
 10
159.9983737269
 20
110.9894014784
 30
0.0
 11
159.9983737269
 21
113.9894014784
 31
0.0
  0
LINE
  5
145
  8
0
  6
CONTINUOUS
 62
     7
 10
159.9983737269
 20
113.9894014784
 30
0.0
 11
139.9983737269
 21
113.9894014784
 31
0.0
  0
LINE
  5
146
  8
0
  6
CONTINUOUS
 62
     7
 10
139.9983737269
 20
113.9894014784
 30
0.0
 11
139.9983737269
 21
110.9894014784
 31
0.0
  0
LINE
  5
147
  8
0
  6
CONTINUOUS
 62
     7
 10
184.9983737269
 20
110.9894014784
 30
0.0
 11
204.9983737269
 21
110.9894014784
 31
0.0
  0
LINE
  5
148
  8
0
  6
CONTINUOUS
 62
     7
 10
204.9983737269
 20
110.9894014784
 30
0.0
 11
204.9983737269
 21
113.9894014784
 31
0.0
  0
LINE
  5
149
  8
0
  6
CONTINUOUS
 62
     7
 10
204.9983737269
 20
113.9894014784
 30
0.0
 11
184.9983737269
 21
113.9894014784
 31
0.0
  0
LINE
  5
14A
  8
0
  6
CONTINUOUS
 62
     7
 10
184.9983737269
 20
113.9894014784
 30
0.0
 11
184.9983737269
 21
110.9894014784
 31
0.0
  0
LINE
  5
14B
  8
0
  6
CONTINUOUS
 62
     7
 10
126.9983737269
 20
124.4894014784
 30
0.0
 11
126.9983737269
 21
144.4894014784
 31
0.0
  0
LINE
  5
14C
  8
0
  6
CONTINUOUS
 62
     7
 10
129.9983737269
 20
124.4894014784
 30
0.0
 11
126.9983737269
 21
124.4894014784
 31
0.0
  0
LINE
  5
14D
  8
0
  6
CONTINUOUS
 62
     7
 10
129.9983737269
 20
144.4894014784
 30
0.0
 11
129.9983737269
 21
124.4894014784
 31
0.0
  0
LINE
  5
14E
  8
0
  6
CONTINUOUS
 62
     7
 10
126.9983737269
 20
144.4894014784
 30
0.0
 11
129.9983737269
 21
144.4894014784
 31
0.0
  0
LINE
  5
14F
  8
0
  6
CONTINUOUS
 62
     7
 10
217.9983737269
 20
124.4894014784
 30
0.0
 11
214.9983737269
 21
124.4894014784
 31
0.0
  0
LINE
  5
150
  8
0
  6
CONTINUOUS
 62
     7
 10
217.9983737269
 20
144.4894014784
 30
0.0
 11
217.9983737269
 21
124.4894014784
 31
0.0
  0
LINE
  5
151
  8
0
  6
CONTINUOUS
 62
     7
 10
214.9983737269
 20
144.4894014784
 30
0.0
 11
217.9983737269
 21
144.4894014784
 31
0.0
  0
LINE
  5
152
  8
0
  6
CONTINUOUS
 62
     7
 10
214.9983737269
 20
124.4894014784
 30
0.0
 11
214.9983737269
 21
144.4894014784
 31
0.0
  0
LINE
  5
153
  8
0
  6
CONTINUOUS
 62
     7
 10
159.9983737269
 20
165.9894014784
 30
0.0
 11
123.9983737269
 21
165.9894014784
 31
0.0
  0
LINE
  5
154
  8
0
  6
CONTINUOUS
 62
     7
 10
184.9983737269
 20
102.9894014784
 30
0.0
 11
220.9983737269
 21
102.9894014784
 31
0.0
  0
LINE
  5
155
  8
0
  6
CONTINUOUS
 62
     7
 10
233.3483843192
 20
97.2989136021
 30
0.0
 11
298.3483843192
 21
97.2989136021
 31
0.0
  0
LINE
  5
156
  8
0
  6
CONTINUOUS
 62
     7
 10
298.3483843192
 20
97.2989136021
 30
0.0
 11
298.3483843192
 21
162.2989136021
 31
0.0
  0
LINE
  5
157
  8
0
  6
CONTINUOUS
 62
     7
 10
298.3483843192
 20
162.2989136021
 30
0.0
 11
233.3483843192
 21
162.2989136021
 31
0.0
  0
LINE
  5
158
  8
0
  6
CONTINUOUS
 62
     7
 10
233.3483843192
 20
162.2989136021
 30
0.0
 11
233.3483843192
 21
97.2989136021
 31
0.0
  0
CIRCLE
  5
159
  8
0
  6
CONTINUOUS
 62
     7
 10
303.3483843192
 20
109.7989136021
 30
0.0
 40
3.0
  0
LINE
  5
15A
  8
0
  6
CONTINUOUS
 62
     7
 10
308.3483843192
 20
99.242289275
 30
0.0
 11
308.3483843192
 21
160.3555379291
 31
0.0
  0
LINE
  5
15B
  8
0
  6
CONTINUOUS
 62
     7
 10
308.3483843192
 20
99.242289275
 30
0.0
 11
305.3483843192
 21
100.9743400826
 31
0.0
  0
LINE
  5
15C
  8
0
  6
CONTINUOUS
 62
     7
 10
305.3483843192
 20
100.9743400826
 30
0.0
 11
302.5983843192
 21
99.3866268423
 31
0.0
  0
LINE
  5
15D
  8
0
  6
CONTINUOUS
 62
     7
 10
302.5983843192
 20
99.3866268423
 30
0.0
 11
302.5983843192
 21
94.7989136021
 31
0.0
  0
LINE
  5
15E
  8
0
  6
CONTINUOUS
 62
     7
 10
278.3483843192
 20
91.7989136021
 30
0.0
 11
298.3483843192
 21
91.7989136021
 31
0.0
  0
LINE
  5
15F
  8
0
  6
CONTINUOUS
 62
     7
 10
278.3483843192
 20
94.7989136021
 30
0.0
 11
278.3483843192
 21
91.7989136021
 31
0.0
  0
LINE
  5
160
  8
0
  6
CONTINUOUS
 62
     7
 10
253.3483843192
 20
91.7989136021
 30
0.0
 11
253.3483843192
 21
94.7989136021
 31
0.0
  0
LINE
  5
161
  8
0
  6
CONTINUOUS
 62
     7
 10
233.3483843192
 20
91.7989136021
 30
0.0
 11
253.3483843192
 21
91.7989136021
 31
0.0
  0
LINE
  5
162
  8
0
  6
CONTINUOUS
 62
     7
 10
233.3483843192
 20
94.7989136021
 30
0.0
 11
233.3483843192
 21
91.7989136021
 31
0.0
  0
LINE
  5
163
  8
0
  6
CONTINUOUS
 62
     7
 10
229.0983843192
 20
94.7989136021
 30
0.0
 11
233.3483843192
 21
94.7989136021
 31
0.0
  0
LINE
  5
164
  8
0
  6
CONTINUOUS
 62
     7
 10
229.0983843192
 20
94.7989136021
 30
0.0
 11
229.0983843192
 21
99.3866268423
 31
0.0
  0
LINE
  5
165
  8
0
  6
CONTINUOUS
 62
     7
 10
229.0983843192
 20
99.3866268423
 30
0.0
 11
226.3483843192
 21
100.9743400826
 31
0.0
  0
LINE
  5
166
  8
0
  6
CONTINUOUS
 62
     7
 10
226.3483843192
 20
100.9743400826
 30
0.0
 11
223.3483843192
 21
99.242289275
 31
0.0
  0
LINE
  5
167
  8
0
  6
CONTINUOUS
 62
     7
 10
223.3483843192
 20
160.3555379291
 30
0.0
 11
223.3483843192
 21
99.242289275
 31
0.0
  0
LINE
  5
168
  8
0
  6
CONTINUOUS
 62
     7
 10
223.3483843192
 20
160.3555379291
 30
0.0
 11
226.3483843192
 21
158.6234871215
 31
0.0
  0
LINE
  5
169
  8
0
  6
CONTINUOUS
 62
     7
 10
226.3483843192
 20
158.6234871215
 30
0.0
 11
229.0983843192
 21
160.2112003618
 31
0.0
  0
LINE
  5
16A
  8
0
  6
CONTINUOUS
 62
     7
 10
229.0983843192
 20
160.2112003618
 30
0.0
 11
229.0983843192
 21
164.7989136021
 31
0.0
  0
LINE
  5
16B
  8
0
  6
CONTINUOUS
 62
     7
 10
253.3483843192
 20
167.7989136021
 30
0.0
 11
233.3483843192
 21
167.7989136021
 31
0.0
  0
LINE
  5
16C
  8
0
  6
CONTINUOUS
 62
     7
 10
253.3483843192
 20
164.7989136021
 30
0.0
 11
253.3483843192
 21
167.7989136021
 31
0.0
  0
LINE
  5
16D
  8
0
  6
CONTINUOUS
 62
     7
 10
278.3483843192
 20
167.7989136021
 30
0.0
 11
278.3483843192
 21
164.7989136021
 31
0.0
  0
LINE
  5
16E
  8
0
  6
CONTINUOUS
 62
     7
 10
298.3483843192
 20
167.7989136021
 30
0.0
 11
278.3483843192
 21
167.7989136021
 31
0.0
  0
LINE
  5
16F
  8
0
  6
CONTINUOUS
 62
     7
 10
298.3483843192
 20
164.7989136021
 30
0.0
 11
298.3483843192
 21
167.7989136021
 31
0.0
  0
LINE
  5
170
  8
0
  6
CONTINUOUS
 62
     7
 10
302.5983843192
 20
164.7989136021
 30
0.0
 11
298.3483843192
 21
164.7989136021
 31
0.0
  0
LINE
  5
171
  8
0
  6
CONTINUOUS
 62
     7
 10
302.5983843192
 20
164.7989136021
 30
0.0
 11
302.5983843192
 21
160.2112003618
 31
0.0
  0
LINE
  5
172
  8
0
  6
CONTINUOUS
 62
     7
 10
302.5983843192
 20
160.2112003618
 30
0.0
 11
305.3483843192
 21
158.6234871215
 31
0.0
  0
LINE
  5
173
  8
0
  6
CONTINUOUS
 62
     7
 10
305.3483843192
 20
158.6234871215
 30
0.0
 11
308.3483843192
 21
160.3555379291
 31
0.0
  0
CIRCLE
  5
174
  8
0
  6
CONTINUOUS
 62
     7
 10
303.3483843192
 20
129.7989136021
 30
0.0
 40
1.5
  0
CIRCLE
  5
175
  8
0
  6
CONTINUOUS
 62
     7
 10
228.3483843192
 20
129.7989136021
 30
0.0
 40
1.5
  0
LINE
  5
176
  8
0
  6
CONTINUOUS
 62
     7
 10
233.3483843192
 20
167.7989136021
 30
0.0
 11
233.3483843192
 21
164.7989136021
 31
0.0
  0
LINE
  5
177
  8
0
  6
CONTINUOUS
 62
     7
 10
298.3483843192
 20
91.7989136021
 30
0.0
 11
298.3483843192
 21
94.7989136021
 31
0.0
  0
LINE
  5
178
  8
0
  6
CONTINUOUS
 62
     7
 10
233.3483843192
 20
164.7989136021
 30
0.0
 11
229.0983843192
 21
164.7989136021
 31
0.0
  0
LINE
  5
179
  8
0
  6
CONTINUOUS
 62
     7
 10
278.3483843192
 20
164.7989136021
 30
0.0
 11
253.3483843192
 21
164.7989136021
 31
0.0
  0
LINE
  5
17A
  8
0
  6
CONTINUOUS
 62
     7
 10
298.3483843192
 20
94.7989136021
 30
0.0
 11
302.5983843192
 21
94.7989136021
 31
0.0
  0
LINE
  5
17B
  8
0
  6
CONTINUOUS
 62
     7
 10
253.3483843192
 20
94.7989136021
 30
0.0
 11
278.3483843192
 21
94.7989136021
 31
0.0
  0
LINE
  5
17C
  8
0
  6
CONTINUOUS
 62
     7
 10
162.1449743928
 20
170.4855109483
 30
0.0
 11
182.1449743928
 21
170.4855109483
 31
0.0
  0
LINE
  5
17D
  8
0
  6
CONTINUOUS
 62
     7
 10
137.1449743928
 20
170.4855109483
 30
0.0
 11
137.1449743928
 21
173.4855109483
 31
0.0
  0
LINE
  5
17E
  8
0
  6
CONTINUOUS
 62
     7
 10
117.1449743928
 20
170.4855109483
 30
0.0
 11
137.1449743928
 21
170.4855109483
 31
0.0
  0
LINE
  5
17F
  8
0
  6
CONTINUOUS
 62
     7
 10
117.1449743928
 20
173.4855109483
 30
0.0
 11
117.1449743928
 21
170.4855109483
 31
0.0
  0
LINE
  5
180
  8
0
  6
CONTINUOUS
 62
     7
 10
107.1449743928
 20
173.4855109483
 30
0.0
 11
117.1449743928
 21
173.4855109483
 31
0.0
  0
LINE
  5
181
  8
0
  6
CONTINUOUS
 62
     7
 10
107.1449743928
 20
243.4855109483
 30
0.0
 11
107.1449743928
 21
173.4855109483
 31
0.0
  0
LINE
  5
182
  8
0
  6
CONTINUOUS
 62
     7
 10
137.1449743928
 20
246.4855109483
 30
0.0
 11
117.1449743928
 21
246.4855109483
 31
0.0
  0
LINE
  5
183
  8
0
  6
CONTINUOUS
 62
     7
 10
162.1449743928
 20
246.4855109483
 30
0.0
 11
162.1449743928
 21
243.4855109483
 31
0.0
  0
LINE
  5
184
  8
0
  6
CONTINUOUS
 62
     7
 10
182.1449743928
 20
246.4855109483
 30
0.0
 11
162.1449743928
 21
246.4855109483
 31
0.0
  0
LINE
  5
185
  8
0
  6
CONTINUOUS
 62
     7
 10
182.1449743928
 20
243.4855109483
 30
0.0
 11
182.1449743928
 21
246.4855109483
 31
0.0
  0
LINE
  5
186
  8
0
  6
CONTINUOUS
 62
     7
 10
192.1449743928
 20
243.4855109483
 30
0.0
 11
182.1449743928
 21
243.4855109483
 31
0.0
  0
LINE
  5
187
  8
0
  6
CONTINUOUS
 62
     7
 10
192.1449743928
 20
173.4855109483
 30
0.0
 11
192.1449743928
 21
243.4855109483
 31
0.0
  0
CIRCLE
  5
188
  8
0
  6
CONTINUOUS
 62
     7
 10
111.1449743928
 20
232.4855109483
 30
0.0
 40
1.25
  0
CIRCLE
  5
189
  8
0
  6
CONTINUOUS
 62
     7
 10
111.1449743928
 20
183.4855109483
 30
0.0
 40
1.25
  0
CIRCLE
  5
18A
  8
0
  6
CONTINUOUS
 62
     7
 10
169.1449743928
 20
183.4855109483
 30
0.0
 40
1.25
  0
CIRCLE
  5
18B
  8
0
  6
CONTINUOUS
 62
     7
 10
169.1449743928
 20
232.4855109483
 30
0.0
 40
1.250000000000028
  0
CIRCLE
  5
18C
  8
0
  6
CONTINUOUS
 62
     7
 10
110.1449743928
 20
176.4855109483
 30
0.0
 40
1.5
  0
CIRCLE
  5
18D
  8
0
  6
CONTINUOUS
 62
     7
 10
189.1449743928
 20
176.4855109483
 30
0.0
 40
1.5
  0
CIRCLE
  5
18E
  8
0
  6
CONTINUOUS
 62
     7
 10
189.1449743928
 20
240.4855109483
 30
0.0
 40
1.5
  0
CIRCLE
  5
18F
  8
0
  6
CONTINUOUS
 62
     7
 10
110.1449743928
 20
240.4855109483
 30
0.0
 40
1.5
  0
ARC
  5
190
  8
0
  6
CONTINUOUS
 62
     7
 10
188.1449743928
 20
201.9855109483
 30
0.0
 40
1.0
 50
270.0
 51
0.0
  0
LINE
  5
191
  8
0
  6
CONTINUOUS
 62
     7
 10
189.1449743928
 20
201.9855109483
 30
0.0
 11
189.1449743928
 21
213.9855109483
 31
0.0
  0
ARC
  5
192
  8
0
  6
CONTINUOUS
 62
     7
 10
188.1449743928
 20
213.9855109483
 30
0.0
 40
1.0
 50
0.0
 51
90.0
  0
LINE
  5
193
  8
0
  6
CONTINUOUS
 62
     7
 10
188.1449743928
 20
214.9855109483
 30
0.0
 11
173.6449743928
 21
214.9855109483
 31
0.0
  0
ARC
  5
194
  8
0
  6
CONTINUOUS
 62
     7
 10
173.6449743928
 20
215.9855109483
 30
0.0
 40
1.0
 50
180.0
 51
270.0
  0
LINE
  5
195
  8
0
  6
CONTINUOUS
 62
     7
 10
172.6449743928
 20
215.9855109483
 30
0.0
 11
172.6449743928
 21
226.9855109483
 31
0.0
  0
ARC
  5
196
  8
0
  6
CONTINUOUS
 62
     7
 10
171.6449743928
 20
226.9855109483
 30
0.0
 40
1.0
 50
0.0
 51
90.0
  0
LINE
  5
197
  8
0
  6
CONTINUOUS
 62
     7
 10
171.6449743928
 20
227.9855109483
 30
0.0
 11
165.6449743928
 21
227.9855109483
 31
0.0
  0
ARC
  5
198
  8
0
  6
CONTINUOUS
 62
     7
 10
165.6449743928
 20
228.9855109483
 30
0.0
 40
1.0
 50
180.0
 51
270.0
  0
LINE
  5
199
  8
0
  6
CONTINUOUS
 62
     7
 10
164.6449743928
 20
228.9855109483
 30
0.0
 11
164.6449743928
 21
234.9855109483
 31
0.0
  0
ARC
  5
19A
  8
0
  6
CONTINUOUS
 62
     7
 10
163.6449743928
 20
234.9855109483
 30
0.0
 40
1.0
 50
0.0
 51
90.0
  0
LINE
  5
19B
  8
0
  6
CONTINUOUS
 62
     7
 10
163.6449743928
 20
235.9855109483
 30
0.0
 11
116.6449743928
 21
235.9855109483
 31
0.0
  0
ARC
  5
19C
  8
0
  6
CONTINUOUS
 62
     7
 10
116.6449743928
 20
234.9855109483
 30
0.0
 40
1.0
 50
90.0
 51
180.0
  0
LINE
  5
19D
  8
0
  6
CONTINUOUS
 62
     7
 10
115.6449743928
 20
234.9855109483
 30
0.0
 11
115.6449743928
 21
228.9855109483
 31
0.0
  0
ARC
  5
19E
  8
0
  6
CONTINUOUS
 62
     7
 10
114.6449743928
 20
228.9855109483
 30
0.0
 40
1.0
 50
270.0
 51
0.0
  0
LINE
  5
19F
  8
0
  6
CONTINUOUS
 62
     7
 10
114.6449743928
 20
227.9855109483
 30
0.0
 11
111.6449743928
 21
227.9855109483
 31
0.0
  0
ARC
  5
1A0
  8
0
  6
CONTINUOUS
 62
     7
 10
111.6449743928
 20
226.9855109483
 30
0.0
 40
1.0
 50
90.0
 51
180.0
  0
LINE
  5
1A1
  8
0
  6
CONTINUOUS
 62
     7
 10
110.6449743928
 20
226.9855109483
 30
0.0
 11
110.6449743928
 21
188.9855109483
 31
0.0
  0
ARC
  5
1A2
  8
0
  6
CONTINUOUS
 62
     7
 10
111.6449743928
 20
188.9855109483
 30
0.0
 40
1.0
 50
180.0
 51
270.0
  0
LINE
  5
1A3
  8
0
  6
CONTINUOUS
 62
     7
 10
111.6449743928
 20
187.9855109483
 30
0.0
 11
114.6449743928
 21
187.9855109483
 31
0.0
  0
ARC
  5
1A4
  8
0
  6
CONTINUOUS
 62
     7
 10
114.6449743928
 20
186.9855109483
 30
0.0
 40
1.0
 50
0.0
 51
90.0
  0
LINE
  5
1A5
  8
0
  6
CONTINUOUS
 62
     7
 10
115.6449743928
 20
186.9855109483
 30
0.0
 11
115.6449743928
 21
180.9855109483
 31
0.0
  0
ARC
  5
1A6
  8
0
  6
CONTINUOUS
 62
     7
 10
116.6449743928
 20
180.9855109483
 30
0.0
 40
1.0
 50
180.0
 51
270.0
  0
LINE
  5
1A7
  8
0
  6
CONTINUOUS
 62
     7
 10
116.6449743928
 20
179.9855109483
 30
0.0
 11
163.6449743928
 21
179.9855109483
 31
0.0
  0
ARC
  5
1A8
  8
0
  6
CONTINUOUS
 62
     7
 10
163.6449743928
 20
180.9855109483
 30
0.0
 40
1.0
 50
270.0
 51
0.0
  0
LINE
  5
1A9
  8
0
  6
CONTINUOUS
 62
     7
 10
164.6449743928
 20
180.9855109483
 30
0.0
 11
164.6449743928
 21
186.9855109483
 31
0.0
  0
ARC
  5
1AA
  8
0
  6
CONTINUOUS
 62
     7
 10
165.6449743928
 20
186.9855109483
 30
0.0
 40
1.0
 50
90.0
 51
180.0
  0
LINE
  5
1AB
  8
0
  6
CONTINUOUS
 62
     7
 10
165.6449743928
 20
187.9855109483
 30
0.0
 11
171.6449743928
 21
187.9855109483
 31
0.0
  0
ARC
  5
1AC
  8
0
  6
CONTINUOUS
 62
     7
 10
171.6449743928
 20
188.9855109483
 30
0.0
 40
1.0
 50
270.0
 51
0.0
  0
LINE
  5
1AD
  8
0
  6
CONTINUOUS
 62
     7
 10
172.6449743928
 20
188.9855109483
 30
0.0
 11
172.6449743928
 21
199.9855109483
 31
0.0
  0
ARC
  5
1AE
  8
0
  6
CONTINUOUS
 62
     7
 10
173.6449743928
 20
199.9855109483
 30
0.0
 40
1.0
 50
90.0
 51
180.0
  0
LINE
  5
1AF
  8
0
  6
CONTINUOUS
 62
     7
 10
173.6449743928
 20
200.9855109483
 30
0.0
 11
188.1449743928
 21
200.9855109483
 31
0.0
  0
CIRCLE
  5
1B0
  8
0
  6
CONTINUOUS
 62
     7
 10
176.6449743928
 20
188.4855109483
 30
0.0
 40
3.000000000000028
  0
LINE
  5
1B1
  8
0
  6
CONTINUOUS
 62
     7
 10
137.1449743928
 20
243.4855109483
 30
0.0
 11
137.1449743928
 21
246.4855109483
 31
0.0
  0
LINE
  5
1B2
  8
0
  6
CONTINUOUS
 62
     7
 10
182.1449743928
 20
170.4855109483
 30
0.0
 11
182.1449743928
 21
173.4855109483
 31
0.0
  0
LINE
  5
1B3
  8
0
  6
CONTINUOUS
 62
     7
 10
162.1449743928
 20
173.4855109483
 30
0.0
 11
162.1449743928
 21
170.4855109483
 31
0.0
  0
LINE
  5
1B4
  8
0
  6
CONTINUOUS
 62
     7
 10
117.1449743928
 20
243.4855109483
 30
0.0
 11
107.1449743928
 21
243.4855109483
 31
0.0
  0
LINE
  5
1B5
  8
0
  6
CONTINUOUS
 62
     7
 10
162.1449743928
 20
243.4855109483
 30
0.0
 11
137.1449743928
 21
243.4855109483
 31
0.0
  0
LINE
  5
1B6
  8
0
  6
CONTINUOUS
 62
     7
 10
182.1449743928
 20
173.4855109483
 30
0.0
 11
192.1449743928
 21
173.4855109483
 31
0.0
  0
LINE
  5
1B7
  8
0
  6
CONTINUOUS
 62
     7
 10
137.1449743928
 20
173.4855109483
 30
0.0
 11
162.1449743928
 21
173.4855109483
 31
0.0
  0
LINE
  5
1B8
  8
0
  6
CONTINUOUS
 62
     7
 10
117.1449743928
 20
246.4855109483
 30
0.0
 11
117.1449743928
 21
243.4855109483
 31
0.0
  0
CIRCLE
  5
1B9
  8
0
  6
CONTINUOUS
 62
     7
 10
27.0386013561
 20
205.4813580436
 30
0.0
 40
1.599999999999994
  0
CIRCLE
  5
1BA
  8
0
  6
CONTINUOUS
 62
     7
 10
102.0386013561
 20
205.4813580436
 30
0.0
 40
1.599999999999994
  0
ARC
  5
1BB
  8
0
  6
CONTINUOUS
 62
     7
 10
27.5386013561
 20
192.4813580436
 30
0.0
 40
3.000000000000028
 50
0.0
 51
90.0
  0
LINE
  5
1BC
  8
0
  6
CONTINUOUS
 62
     7
 10
26.538602578
 20
195.4813582671
 30
0.0
 11
27.5386008793
 21
195.4813582671
 31
0.0
  0
ARC
  5
1BD
  8
0
  6
CONTINUOUS
 62
     7
 10
26.5386013561
 20
198.4813580436
 30
0.0
 40
3.0
 50
180.0
 51
270.0
  0
LINE
  5
1BE
  8
0
  6
CONTINUOUS
 62
     7
 10
23.5386002236
 20
212.4813582597
 30
0.0
 11
23.5386002236
 21
198.4813578275
 31
0.0
  0
ARC
  5
1BF
  8
0
  6
CONTINUOUS
 62
     7
 10
26.5386013561
 20
212.4813580436
 30
0.0
 40
3.0
 50
90.0
 51
180.0
  0
LINE
  5
1C0
  8
0
  6
CONTINUOUS
 62
     7
 10
27.5386008793
 20
215.4813578201
 30
0.0
 11
26.538602578
 21
215.4813578201
 31
0.0
  0
ARC
  5
1C1
  8
0
  6
CONTINUOUS
 62
     7
 10
27.5386013561
 20
218.4813580436
 30
0.0
 40
3.0
 50
270.0
 51
0.0
  0
ARC
  5
1C2
  8
0
  6
CONTINUOUS
 62
     7
 10
33.5386013561
 20
236.4813580436
 30
0.0
 40
3.0
 50
90.0
 51
180.0
  0
ARC
  5
1C3
  8
0
  6
CONTINUOUS
 62
     7
 10
95.5386013561
 20
236.4813580436
 30
0.0
 40
3.0
 50
0.0
 51
90.0
  0
ARC
  5
1C4
  8
0
  6
CONTINUOUS
 62
     7
 10
101.5386013561
 20
218.4813580436
 30
0.0
 40
3.000000000000014
 50
180.0
 51
270.0
  0
LINE
  5
1C5
  8
0
  6
CONTINUOUS
 62
     7
 10
102.5386001342
 20
215.4813578201
 30
0.0
 11
101.538601833
 21
215.4813578201
 31
0.0
  0
ARC
  5
1C6
  8
0
  6
CONTINUOUS
 62
     7
 10
102.5386013561
 20
212.4813580436
 30
0.0
 40
3.0
 50
0.0
 51
90.0
  0
LINE
  5
1C7
  8
0
  6
CONTINUOUS
 62
     7
 10
105.5386024886
 20
198.4813578275
 30
0.0
 11
105.5386024886
 21
212.4813582597
 31
0.0
  0
ARC
  5
1C8
  8
0
  6
CONTINUOUS
 62
     7
 10
102.5386013561
 20
198.4813580436
 30
0.0
 40
3.0
 50
270.0
 51
0.0
  0
LINE
  5
1C9
  8
0
  6
CONTINUOUS
 62
     7
 10
101.538601833
 20
195.4813582671
 30
0.0
 11
102.5386001342
 21
195.4813582671
 31
0.0
  0
ARC
  5
1CA
  8
0
  6
CONTINUOUS
 62
     7
 10
101.5386013561
 20
192.4813580436
 30
0.0
 40
3.000000000000028
 50
90.0
 51
180.0
  0
ARC
  5
1CB
  8
0
  6
CONTINUOUS
 62
     7
 10
95.5386013561
 20
174.4813580436
 30
0.0
 40
3.0
 50
270.0
 51
0.0
  0
ARC
  5
1CC
  8
0
  6
CONTINUOUS
 62
     7
 10
33.5386013561
 20
174.4813580436
 30
0.0
 40
3.0
 50
180.0
 51
270.0
  0
LINE
  5
1CD
  8
0
  6
CONTINUOUS
 62
     7
 10
33.5386018628
 20
171.4813561958
 30
0.0
 11
95.5386008495
 21
171.4813561958
 31
0.0
  0
LINE
  5
1CE
  8
0
  6
CONTINUOUS
 62
     7
 10
30.5385995084
 20
236.4813575369
 30
0.0
 11
30.5385995084
 21
218.4813583118
 31
0.0
  0
LINE
  5
1CF
  8
0
  6
CONTINUOUS
 62
     7
 10
95.5386008495
 20
239.4813598913
 30
0.0
 11
33.5386018628
 21
239.4813598913
 31
0.0
  0
LINE
  5
1D0
  8
0
  6
CONTINUOUS
 62
     7
 10
98.5386032039
 20
174.4813585502
 30
0.0
 11
98.5386032039
 21
192.4813577754
 31
0.0
  0
LINE
  5
1D1
  8
0
  6
CONTINUOUS
 62
     7
 10
98.5386032039
 20
218.4813583118
 30
0.0
 11
98.5386032039
 21
236.4813575369
 31
0.0
  0
LINE
  5
1D2
  8
0
  6
CONTINUOUS
 62
     7
 10
30.5385995084
 20
192.4813577754
 30
0.0
 11
30.5385995084
 21
174.4813585502
 31
0.0
  0
ENDSEC
  0
EOF
